<?xml version="1.0" encoding="UTF-8" standalone="no"?>
<!DOCTYPE svg PUBLIC "-//W3C//DTD SVG 1.1//EN"
 "http://www.w3.org/Graphics/SVG/1.1/DTD/svg11.dtd">
<!-- Generated by graphviz version 2.26.3 (20100126.1600)
 -->
<!-- Title: G Pages: 1 -->
<svg width="804pt" height="552pt"
 viewBox="0.00 0.00 804.00 552.00" xmlns="http://www.w3.org/2000/svg" xmlns:xlink="http://www.w3.org/1999/xlink">
<g id="graph1" class="graph" transform="scale(1 1) rotate(0) translate(4 548)">
<title>G</title>
<polygon fill="white" stroke="white" points="-4,5 -4,-548 801,-548 801,5 -4,5"/>
<g id="graph2" class="cluster"><title>cluster_Data</title>
<polyline fill="none" stroke="gray" points="80,-98 776,-98 "/>
<path fill="none" stroke="gray" d="M776,-98C782,-98 788,-104 788,-110"/>
<polyline fill="none" stroke="gray" points="788,-110 788,-524 "/>
<path fill="none" stroke="gray" d="M788,-524C788,-530 782,-536 776,-536"/>
<polyline fill="none" stroke="gray" points="776,-536 80,-536 "/>
<path fill="none" stroke="gray" d="M80,-536C74,-536 68,-530 68,-524"/>
<polyline fill="none" stroke="gray" points="68,-524 68,-110 "/>
<path fill="none" stroke="gray" d="M68,-110C68,-104 74,-98 80,-98"/>
<text text-anchor="middle" x="428" y="-522.1" font-family="Times Roman,serif" font-size="11.00" fill="gray">Data</text>
</g>
<g id="graph3" class="cluster"><title>cluster_Data\LinkedLists</title>
<polyline fill="none" stroke="gray" points="282,-260 768,-260 "/>
<path fill="none" stroke="gray" d="M768,-260C774,-260 780,-266 780,-272"/>
<polyline fill="none" stroke="gray" points="780,-272 780,-430 "/>
<path fill="none" stroke="gray" d="M780,-430C780,-436 774,-442 768,-442"/>
<polyline fill="none" stroke="gray" points="768,-442 282,-442 "/>
<path fill="none" stroke="gray" d="M282,-442C276,-442 270,-436 270,-430"/>
<polyline fill="none" stroke="gray" points="270,-430 270,-272 "/>
<path fill="none" stroke="gray" d="M270,-272C270,-266 276,-260 282,-260"/>
<text text-anchor="middle" x="525" y="-428.1" font-family="Times Roman,serif" font-size="11.00" fill="gray">LinkedLists</text>
</g>
<!-- \\Data\\LinkedLists\\DoublyLinkedNode -->
<g id="node3" class="node"><title>\\Data\\LinkedLists\\DoublyLinkedNode</title>
<a xlink:href="LinkedLists.DoublyLinkedNode.html" xlink:title="DoublyLinkedNode" target="_parent">
<polygon fill="none" stroke="black" points="771,-358 647,-358 647,-322 771,-322 771,-358"/>
<text text-anchor="middle" x="709" y="-337.1" font-family="Courier,monospace" font-size="11.00">DoublyLinkedNode</text>
</a>
</g>
<!-- \\Data\\IDoublyLinkedNode -->
<g id="node9" class="node"><title>\\Data\\IDoublyLinkedNode</title>
<a xlink:href="IDoublyLinkedNode.html" xlink:title="IDoublyLinkedNode" target="_parent">
<polygon fill="none" stroke="black" points="573,-486 443,-486 443,-450 573,-450 573,-486"/>
<text text-anchor="middle" x="508" y="-465.1" font-family="Courier,monospace" font-size="11.00">IDoublyLinkedNode</text>
</a>
</g>
<!-- \\Data\\LinkedLists\\DoublyLinkedNode&#45;&gt;\\Data\\IDoublyLinkedNode -->
<g id="edge18" class="edge"><title>\\Data\\LinkedLists\\DoublyLinkedNode&#45;&gt;\\Data\\IDoublyLinkedNode</title>
<path fill="none" stroke="black" stroke-dasharray="1,5" d="M660.704,-358.122C655.565,-360.796 650.557,-363.758 646,-367 609.86,-392.708 613.153,-416.692 575.948,-444.03"/>
<polygon fill="none" stroke="black" points="573.633,-441.374 567.366,-449.916 577.592,-447.147 573.633,-441.374"/>
</g>
<!-- \\Data\\LinkedLists\\ILinkedList -->
<g id="node4" class="node"><title>\\Data\\LinkedLists\\ILinkedList</title>
<a xlink:href="LinkedLists.ILinkedList.html" xlink:title="ILinkedList" target="_parent">
<polygon fill="none" stroke="black" points="369,-304 279,-304 279,-268 369,-268 369,-304"/>
<text text-anchor="middle" x="324" y="-283.1" font-family="Courier,monospace" font-size="11.00">ILinkedList</text>
</a>
</g>
<!-- \\Countable -->
<g id="node16" class="node"><title>\\Countable</title>
<ellipse fill="none" stroke="black" cx="103" cy="-72" rx="65.0538" ry="18.3848"/>
<text text-anchor="middle" x="103" y="-68.4" font-family="Times Roman,serif" font-size="14.00" fill="gray">\Countable</text>
</g>
<!-- \\Data\\LinkedLists\\ILinkedList&#45;&gt;\\Countable -->
<g id="edge4" class="edge"><title>\\Data\\LinkedLists\\ILinkedList&#45;&gt;\\Countable</title>
<path fill="none" stroke="black" d="M318.317,-267.783C305.258,-229.11 269.271,-138.701 206,-94 196.967,-87.6183 186.453,-83.0241 175.662,-79.7289"/>
<polygon fill="none" stroke="black" points="176.274,-76.2693 165.708,-77.054 174.457,-83.0294 176.274,-76.2693"/>
</g>
<!-- \\IteratorAggregate -->
<g id="node18" class="node"><title>\\IteratorAggregate</title>
<ellipse fill="none" stroke="black" cx="103" cy="-18" rx="103.238" ry="18.3848"/>
<text text-anchor="middle" x="103" y="-14.4" font-family="Times Roman,serif" font-size="14.00" fill="gray">\IteratorAggregate</text>
</g>
<!-- \\Data\\LinkedLists\\ILinkedList&#45;&gt;\\IteratorAggregate -->
<g id="edge6" class="edge"><title>\\Data\\LinkedLists\\ILinkedList&#45;&gt;\\IteratorAggregate</title>
<path fill="none" stroke="black" d="M320.546,-267.99C310.961,-223.067 279.722,-105.342 206,-45 200.81,-40.7519 195.022,-37.1655 188.91,-34.1388"/>
<polygon fill="none" stroke="black" points="190.317,-30.934 179.756,-30.0926 187.487,-37.3365 190.317,-30.934"/>
</g>
<!-- \\Data\\LinkedLists\\SinglyLinkedNode -->
<g id="node5" class="node"><title>\\Data\\LinkedLists\\SinglyLinkedNode</title>
<a xlink:href="LinkedLists.SinglyLinkedNode.html" xlink:title="SinglyLinkedNode" target="_parent">
<polygon fill="none" stroke="black" points="771,-412 647,-412 647,-376 771,-376 771,-412"/>
<text text-anchor="middle" x="709" y="-391.1" font-family="Courier,monospace" font-size="11.00">SinglyLinkedNode</text>
</a>
</g>
<!-- \\Data\\ILinkedNode -->
<g id="node12" class="node"><title>\\Data\\ILinkedNode</title>
<a xlink:href="ILinkedNode.html" xlink:title="ILinkedNode" target="_parent">
<polygon fill="none" stroke="black" points="369,-496 279,-496 279,-460 369,-460 369,-496"/>
<text text-anchor="middle" x="324" y="-475.1" font-family="Courier,monospace" font-size="11.00">ILinkedNode</text>
</a>
</g>
<!-- \\Data\\LinkedLists\\SinglyLinkedNode&#45;&gt;\\Data\\ILinkedNode -->
<g id="edge20" class="edge"><title>\\Data\\LinkedLists\\SinglyLinkedNode&#45;&gt;\\Data\\ILinkedNode</title>
<path fill="none" stroke="black" stroke-dasharray="1,5" d="M692.411,-412.246C668.877,-436.624 623.16,-478.646 574,-495 509.76,-516.371 431.236,-505.476 379.534,-493.647"/>
<polygon fill="none" stroke="black" points="380.102,-490.185 369.564,-491.278 378.484,-496.995 380.102,-490.185"/>
</g>
<!-- \\Data\\LinkedLists\\DoublyLinkedList -->
<g id="node6" class="node"><title>\\Data\\LinkedLists\\DoublyLinkedList</title>
<a xlink:href="LinkedLists.DoublyLinkedList.html" xlink:title="DoublyLinkedList" target="_parent">
<polygon fill="none" stroke="black" points="771,-304 647,-304 647,-268 771,-268 771,-304"/>
<text text-anchor="middle" x="709" y="-283.1" font-family="Courier,monospace" font-size="11.00">DoublyLinkedList</text>
</a>
</g>
<!-- \\Data\\LinkedLists\\SinglyLinkedList -->
<g id="node8" class="node"><title>\\Data\\LinkedLists\\SinglyLinkedList</title>
<a xlink:href="LinkedLists.SinglyLinkedList.html" xlink:title="SinglyLinkedList" target="_parent">
<polygon fill="none" stroke="black" points="570,-358 446,-358 446,-322 570,-322 570,-358"/>
<text text-anchor="middle" x="508" y="-337.1" font-family="Courier,monospace" font-size="11.00">SinglyLinkedList</text>
</a>
</g>
<!-- \\Data\\LinkedLists\\DoublyLinkedList&#45;&gt;\\Data\\LinkedLists\\SinglyLinkedList -->
<g id="edge8" class="edge"><title>\\Data\\LinkedLists\\DoublyLinkedList&#45;&gt;\\Data\\LinkedLists\\SinglyLinkedList</title>
<path fill="none" stroke="black" d="M646.229,-302.864C625.352,-308.472 601.935,-314.764 580.391,-320.552"/>
<polygon fill="none" stroke="black" points="579.39,-317.196 570.64,-323.171 581.206,-323.957 579.39,-317.196"/>
</g>
<!-- \\Data\\LinkedLists\\IDoublyLinkedList -->
<g id="node7" class="node"><title>\\Data\\LinkedLists\\IDoublyLinkedList</title>
<a xlink:href="LinkedLists.IDoublyLinkedList.html" xlink:title="IDoublyLinkedList" target="_parent">
<polygon fill="none" stroke="black" points="573,-304 443,-304 443,-268 573,-268 573,-304"/>
<text text-anchor="middle" x="508" y="-283.1" font-family="Courier,monospace" font-size="11.00">IDoublyLinkedList</text>
</a>
</g>
<!-- \\Data\\LinkedLists\\IDoublyLinkedList&#45;&gt;\\Data\\LinkedLists\\ILinkedList -->
<g id="edge10" class="edge"><title>\\Data\\LinkedLists\\IDoublyLinkedList&#45;&gt;\\Data\\LinkedLists\\ILinkedList</title>
<path fill="none" stroke="black" d="M442.351,-286C421.873,-286 399.493,-286 379.761,-286"/>
<polygon fill="none" stroke="black" points="379.707,-282.5 369.707,-286 379.707,-289.5 379.707,-282.5"/>
</g>
<!-- \\Data\\LinkedLists\\SinglyLinkedList&#45;&gt;\\Data\\LinkedLists\\ILinkedList -->
<g id="edge22" class="edge"><title>\\Data\\LinkedLists\\SinglyLinkedList&#45;&gt;\\Data\\LinkedLists\\ILinkedList</title>
<path fill="none" stroke="black" stroke-dasharray="1,5" d="M446.475,-321.944C424.829,-315.591 400.647,-308.494 379.525,-302.295"/>
<polygon fill="none" stroke="black" points="380.323,-298.882 369.742,-299.424 378.351,-305.599 380.323,-298.882"/>
</g>
<!-- \\Data\\IDoublyLinkedNode&#45;&gt;\\Data\\ILinkedNode -->
<g id="edge12" class="edge"><title>\\Data\\IDoublyLinkedNode&#45;&gt;\\Data\\ILinkedNode</title>
<path fill="none" stroke="black" d="M442.351,-471.568C421.873,-472.681 399.493,-473.897 379.761,-474.97"/>
<polygon fill="none" stroke="black" points="379.502,-471.478 369.707,-475.516 379.882,-478.468 379.502,-471.478"/>
</g>
<!-- \\Data\\Iterator -->
<g id="node10" class="node"><title>\\Data\\Iterator</title>
<a xlink:href="Iterator.html" xlink:title="Iterator" target="_parent">
<polygon fill="none" stroke="black" points="744,-250 674,-250 674,-214 744,-214 744,-250"/>
<text text-anchor="middle" x="709" y="-229.1" font-family="Courier,monospace" font-size="11.00">Iterator</text>
</a>
</g>
<!-- \\IIterator -->
<g id="node29" class="node"><title>\\IIterator</title>
<ellipse fill="none" stroke="black" cx="508" cy="-72" rx="58.1882" ry="18.3848"/>
<text text-anchor="middle" x="508" y="-68.4" font-family="Times Roman,serif" font-size="14.00" fill="gray">\\IIterator</text>
</g>
<!-- \\Data\\Iterator&#45;&gt;\\IIterator -->
<g id="edge24" class="edge"><title>\\Data\\Iterator&#45;&gt;\\IIterator</title>
<path fill="none" stroke="black" stroke-dasharray="1,5" d="M673.176,-219.299C663.974,-215.334 654.328,-210.527 646,-205 599.372,-174.054 554.447,-126.364 529.113,-97.2878"/>
<polygon fill="none" stroke="black" points="531.68,-94.9041 522.502,-89.6098 526.375,-99.4715 531.68,-94.9041"/>
</g>
<!-- \\Data\\INode -->
<g id="node11" class="node"><title>\\Data\\INode</title>
<a xlink:href="INode.html" xlink:title="INode" target="_parent">
<polygon fill="none" stroke="black" points="130,-496 76,-496 76,-460 130,-460 130,-496"/>
<text text-anchor="middle" x="103" y="-475.1" font-family="Courier,monospace" font-size="11.00">INode</text>
</a>
</g>
<!-- \\Data\\ILinkedNode&#45;&gt;\\Data\\INode -->
<g id="edge14" class="edge"><title>\\Data\\ILinkedNode&#45;&gt;\\Data\\INode</title>
<path fill="none" stroke="black" d="M278.477,-478C237.59,-478 178.296,-478 140.192,-478"/>
<polygon fill="none" stroke="black" points="140.039,-474.5 130.039,-478 140.039,-481.5 140.039,-474.5"/>
</g>
<!-- \\Data\\IIterator -->
<g id="node13" class="node"><title>\\Data\\IIterator</title>
<a xlink:href="IIterator.html" xlink:title="IIterator" target="_parent">
<polygon fill="none" stroke="black" points="747,-196 671,-196 671,-160 747,-160 747,-196"/>
<text text-anchor="middle" x="709" y="-175.1" font-family="Courier,monospace" font-size="11.00">IIterator</text>
</a>
</g>
<!-- \\Iterator -->
<g id="node24" class="node"><title>\\Iterator</title>
<ellipse fill="none" stroke="black" cx="508" cy="-18" rx="51.8276" ry="18.3848"/>
<text text-anchor="middle" x="508" y="-14.4" font-family="Times Roman,serif" font-size="14.00" fill="gray">\Iterator</text>
</g>
<!-- \\Data\\IIterator&#45;&gt;\\Iterator -->
<g id="edge16" class="edge"><title>\\Data\\IIterator&#45;&gt;\\Iterator</title>
<path fill="none" stroke="black" d="M670.368,-165.556C661.807,-161.718 653.161,-156.905 646,-151 602.059,-114.77 618.24,-80.8649 574,-45 568.951,-40.9069 563.197,-37.3571 557.24,-34.2999"/>
<polygon fill="none" stroke="black" points="558.326,-30.9446 547.783,-29.8939 555.37,-37.2897 558.326,-30.9446"/>
</g>
<!-- \\Data\\IteratorMode -->
<g id="node14" class="node"><title>\\Data\\IteratorMode</title>
<a xlink:href="IteratorMode.html" xlink:title="IteratorMode" target="_parent">
<polygon fill="none" stroke="black" points="758,-142 660,-142 660,-106 758,-106 758,-142"/>
<text text-anchor="middle" x="709" y="-121.1" font-family="Courier,monospace" font-size="11.00">IteratorMode</text>
</a>
</g>
</g>
</svg>
