<?xml version="1.0" encoding="UTF-8" standalone="no"?>
<!DOCTYPE svg PUBLIC "-//W3C//DTD SVG 1.1//EN"
 "http://www.w3.org/Graphics/SVG/1.1/DTD/svg11.dtd">
<!-- Generated by graphviz version 2.26.3 (20100126.1600)
 -->
<!-- Title: G Pages: 1 -->
<svg width="804pt" height="498pt"
 viewBox="0.00 0.00 804.00 498.00" xmlns="http://www.w3.org/2000/svg" xmlns:xlink="http://www.w3.org/1999/xlink">
<g id="graph1" class="graph" transform="scale(1 1) rotate(0) translate(4 494)">
<title>G</title>
<polygon fill="white" stroke="white" points="-4,5 -4,-494 801,-494 801,5 -4,5"/>
<g id="graph2" class="cluster"><title>cluster_Data</title>
<polyline fill="none" stroke="gray" points="80,-98 776,-98 "/>
<path fill="none" stroke="gray" d="M776,-98C782,-98 788,-104 788,-110"/>
<polyline fill="none" stroke="gray" points="788,-110 788,-470 "/>
<path fill="none" stroke="gray" d="M788,-470C788,-476 782,-482 776,-482"/>
<polyline fill="none" stroke="gray" points="776,-482 80,-482 "/>
<path fill="none" stroke="gray" d="M80,-482C74,-482 68,-476 68,-470"/>
<polyline fill="none" stroke="gray" points="68,-470 68,-110 "/>
<path fill="none" stroke="gray" d="M68,-110C68,-104 74,-98 80,-98"/>
<text text-anchor="middle" x="428" y="-468.1" font-family="Times Roman,serif" font-size="11.00" fill="gray">Data</text>
</g>
<g id="graph3" class="cluster"><title>cluster_Data\LinkedLists</title>
<polyline fill="none" stroke="gray" points="282,-206 768,-206 "/>
<path fill="none" stroke="gray" d="M768,-206C774,-206 780,-212 780,-218"/>
<polyline fill="none" stroke="gray" points="780,-218 780,-376 "/>
<path fill="none" stroke="gray" d="M780,-376C780,-382 774,-388 768,-388"/>
<polyline fill="none" stroke="gray" points="768,-388 282,-388 "/>
<path fill="none" stroke="gray" d="M282,-388C276,-388 270,-382 270,-376"/>
<polyline fill="none" stroke="gray" points="270,-376 270,-218 "/>
<path fill="none" stroke="gray" d="M270,-218C270,-212 276,-206 282,-206"/>
<text text-anchor="middle" x="525" y="-374.1" font-family="Times Roman,serif" font-size="11.00" fill="gray">LinkedLists</text>
</g>
<!-- \\Data\\LinkedLists\\ILinkedList -->
<g id="node3" class="node"><title>\\Data\\LinkedLists\\ILinkedList</title>
<a xlink:href="LinkedLists.ILinkedList.html" xlink:title="ILinkedList" target="_parent">
<polygon fill="none" stroke="black" points="369,-250 279,-250 279,-214 369,-214 369,-250"/>
<text text-anchor="middle" x="324" y="-229.1" font-family="Courier,monospace" font-size="11.00">ILinkedList</text>
</a>
</g>
<!-- \\Countable -->
<g id="node16" class="node"><title>\\Countable</title>
<ellipse fill="none" stroke="black" cx="103" cy="-72" rx="65.0538" ry="18.3848"/>
<text text-anchor="middle" x="103" y="-68.4" font-family="Times Roman,serif" font-size="14.00" fill="gray">\Countable</text>
</g>
<!-- \\Data\\LinkedLists\\ILinkedList&#45;&gt;\\Countable -->
<g id="edge6" class="edge"><title>\\Data\\LinkedLists\\ILinkedList&#45;&gt;\\Countable</title>
<path fill="none" stroke="black" d="M313.943,-213.899C296.268,-183.887 256.654,-124.15 206,-94 196.217,-88.177 185.1,-83.8851 173.877,-80.724"/>
<polygon fill="none" stroke="black" points="174.571,-77.2893 164.018,-78.2271 172.852,-84.0751 174.571,-77.2893"/>
</g>
<!-- \\IteratorAggregate -->
<g id="node18" class="node"><title>\\IteratorAggregate</title>
<ellipse fill="none" stroke="black" cx="103" cy="-18" rx="103.238" ry="18.3848"/>
<text text-anchor="middle" x="103" y="-14.4" font-family="Times Roman,serif" font-size="14.00" fill="gray">\IteratorAggregate</text>
</g>
<!-- \\Data\\LinkedLists\\ILinkedList&#45;&gt;\\IteratorAggregate -->
<g id="edge8" class="edge"><title>\\Data\\LinkedLists\\ILinkedList&#45;&gt;\\IteratorAggregate</title>
<path fill="none" stroke="black" d="M317.808,-213.901C304,-176.334 267.012,-89.684 206,-45 200.207,-40.7572 193.8,-37.1803 187.1,-34.165"/>
<polygon fill="none" stroke="black" points="188.393,-30.9125 177.811,-30.3914 185.758,-37.3978 188.393,-30.9125"/>
</g>
<!-- \\Data\\LinkedLists\\SinglyLinkedList -->
<g id="node4" class="node"><title>\\Data\\LinkedLists\\SinglyLinkedList</title>
<a xlink:href="LinkedLists.SinglyLinkedList.html" xlink:title="SinglyLinkedList" target="_parent">
<polygon fill="none" stroke="black" points="570,-304 446,-304 446,-268 570,-268 570,-304"/>
<text text-anchor="middle" x="508" y="-283.1" font-family="Courier,monospace" font-size="11.00">SinglyLinkedList</text>
</a>
</g>
<!-- \\Data\\LinkedLists\\SinglyLinkedList&#45;&gt;\\Data\\LinkedLists\\ILinkedList -->
<g id="edge16" class="edge"><title>\\Data\\LinkedLists\\SinglyLinkedList&#45;&gt;\\Data\\LinkedLists\\ILinkedList</title>
<path fill="none" stroke="black" stroke-dasharray="1,5" d="M446.475,-267.944C424.829,-261.591 400.647,-254.494 379.525,-248.295"/>
<polygon fill="none" stroke="black" points="380.323,-244.882 369.742,-245.424 378.351,-251.599 380.323,-244.882"/>
</g>
<!-- \\Data\\LinkedLists\\DoublyLinkedList -->
<g id="node5" class="node"><title>\\Data\\LinkedLists\\DoublyLinkedList</title>
<a xlink:href="LinkedLists.DoublyLinkedList.html" xlink:title="DoublyLinkedList" target="_parent">
<polygon fill="none" stroke="black" points="771,-250 647,-250 647,-214 771,-214 771,-250"/>
<text text-anchor="middle" x="709" y="-229.1" font-family="Courier,monospace" font-size="11.00">DoublyLinkedList</text>
</a>
</g>
<!-- \\Data\\LinkedLists\\IDoublyLinkedList -->
<g id="node8" class="node"><title>\\Data\\LinkedLists\\IDoublyLinkedList</title>
<a xlink:href="LinkedLists.IDoublyLinkedList.html" xlink:title="IDoublyLinkedList" target="_parent">
<polygon fill="none" stroke="black" points="573,-250 443,-250 443,-214 573,-214 573,-250"/>
<text text-anchor="middle" x="508" y="-229.1" font-family="Courier,monospace" font-size="11.00">IDoublyLinkedList</text>
</a>
</g>
<!-- \\Data\\LinkedLists\\DoublyLinkedList&#45;&gt;\\Data\\LinkedLists\\IDoublyLinkedList -->
<g id="edge18" class="edge"><title>\\Data\\LinkedLists\\DoublyLinkedList&#45;&gt;\\Data\\LinkedLists\\IDoublyLinkedList</title>
<path fill="none" stroke="black" stroke-dasharray="1,5" d="M646.229,-232C626.521,-232 604.549,-232 584.027,-232"/>
<polygon fill="none" stroke="black" points="583.767,-228.5 573.767,-232 583.767,-235.5 583.767,-228.5"/>
</g>
<!-- \\Data\\LinkedLists\\DoublyLinkedNode -->
<g id="node6" class="node"><title>\\Data\\LinkedLists\\DoublyLinkedNode</title>
<a xlink:href="LinkedLists.DoublyLinkedNode.html" xlink:title="DoublyLinkedNode" target="_parent">
<polygon fill="none" stroke="black" points="771,-304 647,-304 647,-268 771,-268 771,-304"/>
<text text-anchor="middle" x="709" y="-283.1" font-family="Courier,monospace" font-size="11.00">DoublyLinkedNode</text>
</a>
</g>
<!-- \\Data\\IDoublyLinkedNode -->
<g id="node9" class="node"><title>\\Data\\IDoublyLinkedNode</title>
<a xlink:href="IDoublyLinkedNode.html" xlink:title="IDoublyLinkedNode" target="_parent">
<polygon fill="none" stroke="black" points="573,-432 443,-432 443,-396 573,-396 573,-432"/>
<text text-anchor="middle" x="508" y="-411.1" font-family="Courier,monospace" font-size="11.00">IDoublyLinkedNode</text>
</a>
</g>
<!-- \\Data\\LinkedLists\\DoublyLinkedNode&#45;&gt;\\Data\\IDoublyLinkedNode -->
<g id="edge20" class="edge"><title>\\Data\\LinkedLists\\DoublyLinkedNode&#45;&gt;\\Data\\IDoublyLinkedNode</title>
<path fill="none" stroke="black" stroke-dasharray="1,5" d="M660.704,-304.122C655.565,-306.796 650.557,-309.758 646,-313 609.86,-338.708 613.153,-362.692 575.948,-390.03"/>
<polygon fill="none" stroke="black" points="573.633,-387.374 567.366,-395.916 577.592,-393.147 573.633,-387.374"/>
</g>
<!-- \\Data\\LinkedLists\\SinglyLinkedNode -->
<g id="node7" class="node"><title>\\Data\\LinkedLists\\SinglyLinkedNode</title>
<a xlink:href="LinkedLists.SinglyLinkedNode.html" xlink:title="SinglyLinkedNode" target="_parent">
<polygon fill="none" stroke="black" points="771,-358 647,-358 647,-322 771,-322 771,-358"/>
<text text-anchor="middle" x="709" y="-337.1" font-family="Courier,monospace" font-size="11.00">SinglyLinkedNode</text>
</a>
</g>
<!-- \\Data\\ILinkedNode -->
<g id="node12" class="node"><title>\\Data\\ILinkedNode</title>
<a xlink:href="ILinkedNode.html" xlink:title="ILinkedNode" target="_parent">
<polygon fill="none" stroke="black" points="369,-442 279,-442 279,-406 369,-406 369,-442"/>
<text text-anchor="middle" x="324" y="-421.1" font-family="Courier,monospace" font-size="11.00">ILinkedNode</text>
</a>
</g>
<!-- \\Data\\LinkedLists\\SinglyLinkedNode&#45;&gt;\\Data\\ILinkedNode -->
<g id="edge22" class="edge"><title>\\Data\\LinkedLists\\SinglyLinkedNode&#45;&gt;\\Data\\ILinkedNode</title>
<path fill="none" stroke="black" stroke-dasharray="1,5" d="M692.411,-358.246C668.877,-382.624 623.16,-424.646 574,-441 509.76,-462.371 431.236,-451.476 379.534,-439.647"/>
<polygon fill="none" stroke="black" points="380.102,-436.185 369.564,-437.278 378.484,-442.995 380.102,-436.185"/>
</g>
<!-- \\Data\\LinkedLists\\IDoublyLinkedList&#45;&gt;\\Data\\LinkedLists\\ILinkedList -->
<g id="edge10" class="edge"><title>\\Data\\LinkedLists\\IDoublyLinkedList&#45;&gt;\\Data\\LinkedLists\\ILinkedList</title>
<path fill="none" stroke="black" d="M442.351,-232C421.873,-232 399.493,-232 379.761,-232"/>
<polygon fill="none" stroke="black" points="379.707,-228.5 369.707,-232 379.707,-235.5 379.707,-228.5"/>
</g>
<!-- \\Data\\IDoublyLinkedNode&#45;&gt;\\Data\\ILinkedNode -->
<g id="edge4" class="edge"><title>\\Data\\IDoublyLinkedNode&#45;&gt;\\Data\\ILinkedNode</title>
<path fill="none" stroke="black" d="M442.351,-417.568C421.873,-418.681 399.493,-419.897 379.761,-420.97"/>
<polygon fill="none" stroke="black" points="379.502,-417.478 369.707,-421.516 379.882,-424.468 379.502,-417.478"/>
</g>
<!-- \\Data\\INode -->
<g id="node10" class="node"><title>\\Data\\INode</title>
<a xlink:href="INode.html" xlink:title="INode" target="_parent">
<polygon fill="none" stroke="black" points="130,-442 76,-442 76,-406 130,-406 130,-442"/>
<text text-anchor="middle" x="103" y="-421.1" font-family="Courier,monospace" font-size="11.00">INode</text>
</a>
</g>
<!-- \\Data\\IteratorMode -->
<g id="node11" class="node"><title>\\Data\\IteratorMode</title>
<a xlink:href="IteratorMode.html" xlink:title="IteratorMode" target="_parent">
<polygon fill="none" stroke="black" points="758,-196 660,-196 660,-160 758,-160 758,-196"/>
<text text-anchor="middle" x="709" y="-175.1" font-family="Courier,monospace" font-size="11.00">IteratorMode</text>
</a>
</g>
<!-- \\Data\\ILinkedNode&#45;&gt;\\Data\\INode -->
<g id="edge12" class="edge"><title>\\Data\\ILinkedNode&#45;&gt;\\Data\\INode</title>
<path fill="none" stroke="black" d="M278.477,-424C237.59,-424 178.296,-424 140.192,-424"/>
<polygon fill="none" stroke="black" points="140.039,-420.5 130.039,-424 140.039,-427.5 140.039,-420.5"/>
</g>
<!-- \\Data\\IIterator -->
<g id="node13" class="node"><title>\\Data\\IIterator</title>
<a xlink:href="IIterator.html" xlink:title="IIterator" target="_parent">
<polygon fill="none" stroke="black" points="747,-142 671,-142 671,-106 747,-106 747,-142"/>
<text text-anchor="middle" x="709" y="-121.1" font-family="Courier,monospace" font-size="11.00">IIterator</text>
</a>
</g>
<!-- \\Iterator -->
<g id="node22" class="node"><title>\\Iterator</title>
<ellipse fill="none" stroke="black" cx="508" cy="-72" rx="51.8276" ry="18.3848"/>
<text text-anchor="middle" x="508" y="-68.4" font-family="Times Roman,serif" font-size="14.00" fill="gray">\Iterator</text>
</g>
<!-- \\Data\\IIterator&#45;&gt;\\Iterator -->
<g id="edge14" class="edge"><title>\\Data\\IIterator&#45;&gt;\\Iterator</title>
<path fill="none" stroke="black" d="M670.245,-113.974C638.889,-105.862 594.439,-94.3624 559.992,-85.4507"/>
<polygon fill="none" stroke="black" points="560.663,-82.0092 550.106,-82.893 558.91,-88.7861 560.663,-82.0092"/>
</g>
</g>
</svg>
